<svg width="20" height="20" viewBox="0 0 20 20" fill="currentColor" xmlns="http://www.w3.org/2000/svg">
<path fill-rule="evenodd" clip-rule="evenodd" d="M6.42857 2.14282C5.72143 2.14282 5.16714 2.57282 4.82429 3.08854C4.47714 3.60854 4.28571 4.28711 4.28571 4.99997C4.28571 5.71282 4.47714 6.39139 4.82429 6.91139C5.16714 7.42568 5.72143 7.85711 6.42857 7.85711C7.13571 7.85711 7.69 7.42711 8.03286 6.91139C8.38 6.39139 8.57143 5.71282 8.57143 4.99997C8.57143 4.28711 8.38 3.60854 8.03286 3.08854C7.69 2.57425 7.13571 2.14282 6.42857 2.14282ZM13.5714 2.14282C12.8643 2.14282 12.31 2.57282 11.9671 3.08854C11.62 3.60854 11.4286 4.28711 11.4286 4.99997C11.4286 5.71282 11.62 6.39139 11.9671 6.91139C12.31 7.42568 12.8643 7.85711 13.5714 7.85711C14.2786 7.85711 14.8329 7.42711 15.1757 6.91139C15.5229 6.39139 15.7143 5.71282 15.7143 4.99997C15.7143 4.28711 15.5229 3.60854 15.1757 3.08854C14.8329 2.57425 14.2786 2.14282 13.5714 2.14282ZM2.14286 8.57139C1.43571 8.57139 0.881429 9.00139 0.538571 9.51711C0.191429 10.0371 0 10.7157 0 11.4285C0 12.1414 0.191429 12.82 0.538571 13.34C0.881429 13.8543 1.43571 14.2857 2.14286 14.2857C2.85 14.2857 3.40429 13.8557 3.74714 13.34C4.09429 12.82 4.28571 12.1414 4.28571 11.4285C4.28571 10.7157 4.09429 10.0371 3.74714 9.51711C3.40429 9.00282 2.85 8.57139 2.14286 8.57139ZM10 8.57139C8.28571 8.57139 7.01571 9.49139 6.20429 10.6328C5.40286 11.7571 5 13.1528 5 14.2857C5 15.6057 5.79286 16.5228 6.76571 17.0743C7.72286 17.6171 8.92286 17.8571 10 17.8571C11.0771 17.8571 12.2771 17.6185 13.2343 17.0743C14.2057 16.5228 15 15.6057 15 14.2857C15 13.1528 14.5971 11.7571 13.7957 10.6328C12.9857 9.48996 11.7157 8.57139 10 8.57139ZM17.8571 8.57139C17.15 8.57139 16.5957 9.00139 16.2529 9.51711C15.9057 10.0371 15.7143 10.7157 15.7143 11.4285C15.7143 12.1414 15.9057 12.82 16.2529 13.34C16.5957 13.8543 17.15 14.2857 17.8571 14.2857C18.5643 14.2857 19.1186 13.8557 19.4614 13.34C19.8086 12.82 20 12.1414 20 11.4285C20 10.7157 19.8086 10.0371 19.4614 9.51711C19.1186 9.00282 18.5643 8.57139 17.8571 8.57139Z" fill="#061F57"/>
</svg>
