<svg width="14" height="17" viewBox="0 0 14 17" fill="currentColor" xmlns="http://www.w3.org/2000/svg">
<g clip-path="url(#clip0_48_2900)">
<path d="M13 0C12.5 0 9 1.0625 9 5.84375V9.5625C9 10.7346 9.89688 11.6875 11 11.6875H12V15.9375C12 16.5252 12.4469 17 13 17C13.5531 17 14 16.5252 14 15.9375V1.0625C14 0.474805 13.5531 0 13 0ZM2 0.53125C2 0.258984 1.80938 0.0332031 1.55313 0.00332031C1.29688 -0.0265625 1.06875 0.152734 1.0125 0.415039L0.065625 4.94063C0.021875 5.1498 0 5.3623 0 5.5748C0 7.09883 1.09687 8.35059 2.5 8.48672V15.9375C2.5 16.5252 2.94688 17 3.5 17C4.05312 17 4.5 16.5252 4.5 15.9375V8.48672C5.90312 8.35059 7 7.09883 7 5.5748C7 5.3623 6.97812 5.1498 6.93437 4.94063L5.9875 0.415039C5.93125 0.149414 5.69688 -0.0265625 5.44375 0.00332031C5.19062 0.0332031 5 0.258984 5 0.53125V4.98711C5 5.16641 4.8625 5.3125 4.69375 5.3125C4.53437 5.3125 4.40312 5.18301 4.3875 5.01367L3.99688 0.484766C3.975 0.20918 3.75938 0 3.5 0C3.24062 0 3.025 0.20918 3.00312 0.484766L2.61562 5.01367C2.6 5.18301 2.46875 5.3125 2.30938 5.3125C2.14062 5.3125 2.00312 5.16641 2.00312 4.98711L2 0.53125ZM3.50938 5.57812H3.49062L3.5 5.55488L3.50938 5.57812Z" fill="#29abe2"/>
</g>
<defs>
<clipPath id="clip0_48_2900">
<rect width="14" height="17" fill="currentColor"/>
</clipPath>
</defs>
</svg>
