<svg width="24" height="24" viewBox="0 0 24 24" fill="currentColor" xmlns="http://www.w3.org/2000/svg">
<path d="M12 22C11.45 22 10.9793 21.8043 10.588 21.413C10.1967 21.0217 10.0007 20.5507 10 20H14C14 20.55 13.8043 21.021 13.413 21.413C13.0217 21.805 12.5507 22.0007 12 22ZM8 19V17H16V19H8ZM8.25 16C7.1 15.3167 6.18733 14.4 5.512 13.25C4.83667 12.1 4.49933 10.85 4.5 9.5C4.5 7.41667 5.22933 5.646 6.688 4.188C8.14667 2.73 9.91733 2.00067 12 2C14.0827 1.99933 15.8537 2.72867 17.313 4.188C18.7723 5.64733 19.5013 7.418 19.5 9.5C19.5 10.85 19.1627 12.1 18.488 13.25C17.8133 14.4 16.9007 15.3167 15.75 16H8.25Z" fill="#29abe2"/>
</svg>
